<?xml version="1.0" encoding="UTF-8" standalone="no"?>
<!-- Created with Inkscape (http://www.inkscape.org/) -->

<svg
   width="400"
   height="40"
   viewBox="0 0 105.83333 10.583333"
   version="1.1"
   id="svg1"
   inkscape:version="1.4.1-rc (75f6ae08f7, 2025-03-25)"
   sodipodi:docname="header_logo.svg"
   xmlns:inkscape="http://www.inkscape.org/namespaces/inkscape"
   xmlns:sodipodi="http://sodipodi.sourceforge.net/DTD/sodipodi-0.dtd"
   xmlns="http://www.w3.org/2000/svg"
   xmlns:svg="http://www.w3.org/2000/svg">
  <sodipodi:namedview
     id="namedview1"
     pagecolor="#ffffff"
     bordercolor="#000000"
     borderopacity="0.25"
     inkscape:showpageshadow="2"
     inkscape:pageopacity="0.0"
     inkscape:pagecheckerboard="0"
     inkscape:deskcolor="#d1d1d1"
     inkscape:document-units="mm"
     inkscape:zoom="3.0110567"
     inkscape:cx="175.18767"
     inkscape:cy="114.07955"
     inkscape:window-width="2560"
     inkscape:window-height="1403"
     inkscape:window-x="0"
     inkscape:window-y="0"
     inkscape:window-maximized="1"
     inkscape:current-layer="g29" />
  <defs
     id="defs1" />
  <g
     inkscape:label="Layer 1"
     inkscape:groupmode="layer"
     id="layer1"
     transform="translate(-4.8777404,-6.8765828)">
    <g
       id="g29"
       transform="translate(-0.89451708)">
      <g
         id="g30"
         transform="matrix(1.1015377,0,0,1.017336,-0.58610179,-0.11921245)"
         style="stroke-width:0.944644">
        <path
           id="text25"
           style="font-weight:900;font-size:13.9984px;line-height:1;font-family:'Libre Franklin';-inkscape-font-specification:'Libre Franklin Heavy';text-align:center;letter-spacing:0px;writing-mode:lr-tb;direction:ltr;text-anchor:middle;fill:#aa0000;fill-opacity:1;stroke:none;stroke-width:1.88928;stroke-linecap:round;stroke-linejoin:round;stroke-miterlimit:10;stroke-dasharray:none;paint-order:fill markers stroke"
           d="m 6.0378743,6.8926025 c -0.177313,0 -0.2656168,0.1073021 -0.2656168,0.3219442 v 9.7151693 c 0,0.121319 0.023102,0.21014 0.069763,0.266134 0.055994,0.05599 0.1540549,0.08372 0.2940389,0.08372 H 8.487854 c 0.3079648,0 0.4619873,-0.135024 0.4619873,-0.40566 v -3.163631 c 0,-0.102655 0.055961,-0.153996 0.1679484,-0.153996 h 1.9177123 c 0.765246,0 1.432677,-0.13092 2.001945,-0.392224 0.578601,-0.270635 1.030911,-0.648503 1.35754,-1.133781 0.326629,-0.49461 0.489893,-1.082461 0.489893,-1.763716 0,-0.7559138 -0.190986,-1.3812446 -0.573609,-1.8758547 C 13.928648,7.8867599 13.41524,7.513513 12.771313,7.270874 12.136719,7.0189028 11.436946,6.8926025 10.6717,6.8926025 Z m 10.2329667,0 c -0.177313,0 -0.266133,0.1073021 -0.266133,0.3219442 v 9.7151693 c 0,0.121319 0.02362,0.21014 0.07028,0.266134 0.05599,0.05599 0.158675,0.08372 0.307991,0.08372 h 2.337842 c 0.158649,0 0.275191,-0.02772 0.34985,-0.08372 0.07466,-0.06533 0.112137,-0.172628 0.112137,-0.321945 V 7.1866414 c 0,-0.1959776 -0.0842,-0.2940389 -0.252181,-0.2940389 z m 4.717542,0 c -0.167981,0 -0.252181,0.098061 -0.252181,0.2940389 v 1.6800009 c 0,0.1213194 0.019,0.21014 0.05633,0.2661336 0.04666,0.046661 0.130345,0.069763 0.251665,0.069763 h 3.709851 c 0.177313,0 0.219413,0.074443 0.12609,0.2237589 l -4.311881,6.1593142 c -0.130652,0.186645 -0.214336,0.317566 -0.251665,0.392224 -0.028,0.06533 -0.04237,0.172628 -0.04237,0.321944 v 0.629936 c 0,0.139984 0.02362,0.233425 0.07028,0.280086 0.05599,0.04666 0.154055,0.06976 0.294039,0.06976 h 8.412923 c 0.121319,0 0.205519,-0.02772 0.252181,-0.08372 0.05599,-0.06533 0.08372,-0.140286 0.08372,-0.224276 V 15.22181 c 0,-0.177313 -0.102682,-0.266134 -0.307992,-0.266134 h -4.157369 c -0.06533,0 -0.121287,-0.01386 -0.167948,-0.04186 -0.04666,-0.028 -0.04666,-0.07934 0,-0.153995 L 29.233369,8.4604635 C 29.326689,8.3298118 29.387273,8.2271301 29.41527,8.152472 29.4526,8.077814 29.4716,7.98951 29.4716,7.8868551 V 7.1726888 c 0,-0.1866453 -0.08882,-0.2800863 -0.266134,-0.2800863 z m 9.994739,0 c -0.167981,0 -0.251664,0.098061 -0.251664,0.2940389 v 1.6800009 c 0,0.1213194 0.01848,0.21014 0.05581,0.2661336 0.04666,0.046661 0.130345,0.069763 0.251664,0.069763 h 3.709851 c 0.177313,0 0.219414,0.074443 0.126091,0.2237589 l -4.311882,6.1593142 c -0.130651,0.186645 -0.214335,0.317566 -0.251664,0.392224 -0.028,0.06533 -0.04186,0.172628 -0.04186,0.321944 v 0.629936 c 0,0.139984 0.0231,0.233425 0.06976,0.280086 0.05599,0.04666 0.154055,0.06976 0.294039,0.06976 h 8.412923 c 0.12132,0 0.20552,-0.02772 0.252181,-0.08372 0.05599,-0.06533 0.08372,-0.140286 0.08372,-0.224276 V 15.22181 c 0,-0.177313 -0.102681,-0.266134 -0.307991,-0.266134 h -4.157369 c -0.06533,0 -0.121287,-0.01386 -0.167949,-0.04186 -0.04666,-0.028 -0.04666,-0.07934 0,-0.153995 L 39.228096,8.4604635 C 39.321416,8.3298118 39.382,8.2271301 39.409997,8.152472 39.447327,8.077814 39.466327,7.98951 39.466327,7.8868551 V 7.1726888 c 0,-0.1866453 -0.08882,-0.2800863 -0.266134,-0.2800863 z m 13.116512,0 c -0.12132,0 -0.21014,0.028239 -0.266134,0.084233 -0.05599,0.046661 -0.107334,0.1257244 -0.153996,0.2377116 l -3.38739,9.5472209 c -0.05599,0.149316 -0.06061,0.275099 -0.01395,0.377754 0.04666,0.09332 0.121104,0.140043 0.223759,0.140043 h 2.128035 c 0.102655,0 0.177098,-0.01848 0.223759,-0.05581 0.05599,-0.04666 0.09347,-0.098 0.112138,-0.153996 l 0.574125,-1.652095 c 0.028,-0.102655 0.09782,-0.153996 0.209806,-0.153996 h 2.967778 c 0.07466,0 0.121378,0.019 0.140043,0.05633 0.028,0.028 0.0511,0.06496 0.06976,0.111621 l 0.545703,1.610238 c 0.04666,0.158648 0.149343,0.237711 0.307992,0.237711 h 2.744018 c 0.102655,0 0.167857,-0.05596 0.195854,-0.167948 0.03733,-0.111987 0.03733,-0.214669 0,-0.307992 L 47.36145,7.270874 C 47.268128,7.0189028 47.100244,6.8926025 46.857605,6.8926025 Z M 9.2717855,9.1327759 H 10.47533 c 0.214642,0 0.410764,0.046204 0.588077,0.1395263 0.177313,0.08399 0.317475,0.2102907 0.42013,0.3782715 0.102655,0.1586486 0.153996,0.3496343 0.153996,0.5736083 0,0.298633 -0.09806,0.555337 -0.294039,0.769979 -0.186646,0.214642 -0.44797,0.321944 -0.783932,0.321944 H 9.1875529 c -0.1586485,0 -0.2377116,-0.102682 -0.2377116,-0.307991 V 9.426298 c 0,-0.1959776 0.1073021,-0.2935221 0.3219442,-0.2935221 z M 45.212744,10.140466 c 0.0023,-1.82e-4 0.0044,0 0.0067,0 0.03733,0 0.06557,0.0231 0.08423,0.06976 l 0.839742,2.39417 c 0.05599,0.186645 0.01389,0.279569 -0.126091,0.279569 h -1.595768 c -0.167981,0 -0.214701,-0.09806 -0.140043,-0.294039 l 0.854211,-2.3797 c 0.0175,-0.04374 0.0431,-0.06703 0.077,-0.06976 z" />
        <path
           id="text26"
           style="font-weight:900;font-size:13.6522px;line-height:1;font-family:'Libre Franklin';-inkscape-font-specification:'Libre Franklin Heavy';text-align:center;letter-spacing:0px;writing-mode:lr-tb;direction:ltr;text-anchor:middle;fill:#f9f9f9;fill-opacity:1;stroke-width:31.9919;stroke-linecap:round;stroke-linejoin:round;stroke-miterlimit:10;paint-order:fill markers stroke"
           d="m 60.020109,6.8765828 c -0.891944,0 -1.661149,0.2048668 -2.307353,0.6144328 -0.646204,0.409566 -1.14676,1.0057952 -1.501717,1.7885213 -0.354957,0.7827261 -0.532267,1.7292411 -0.532267,2.8396201 0,1.101277 0.172459,2.038607 0.518315,2.812231 0.345855,0.764524 0.842077,1.347233 1.488281,1.747697 0.655305,0.400465 1.428845,0.60048 2.320788,0.60048 0.891944,0 1.661149,-0.200015 2.307353,-0.60048 0.655306,-0.409566 1.155862,-0.996609 1.501717,-1.761133 0.345856,-0.773624 0.518832,-1.71147 0.518832,-2.812748 0,-1.11948 -0.17731,-2.065995 -0.532268,-2.8396197 C 63.455935,8.4919597 62.959713,7.9005816 62.313509,7.4910156 61.676406,7.0814496 60.912053,6.8765828 60.020109,6.8765828 Z m 6.689514,0.1364258 c -0.109217,0 -0.163814,0.063782 -0.163814,0.1912028 v 9.7616776 c 0,0.05461 0.01352,0.10002 0.04082,0.136426 0.0273,0.0273 0.07757,0.04082 0.150379,0.04082 h 0.887284 c 0.154725,0 0.232027,-0.07297 0.232027,-0.218592 v -4.245735 c 0,-0.04551 0.0092,-0.08173 0.02739,-0.109038 0.0273,-0.0273 0.07272,-0.04134 0.136426,-0.04134 h 2.307352 c 0.172928,0 0.282121,0.05026 0.327629,0.150379 l 1.761133,4.300512 c 0.04551,0.109218 0.117958,0.163815 0.218074,0.163815 h 0.996839 c 0.06371,0 0.109121,-0.02756 0.136425,-0.08217 0.03641,-0.05461 0.04126,-0.11354 0.01395,-0.17725 l -1.911511,-4.464327 c -0.03641,-0.08191 -0.01803,-0.127324 0.05478,-0.136426 0.318551,-0.100116 0.62776,-0.25472 0.928108,-0.464054 0.30945,-0.218435 0.564579,-0.505456 0.764812,-0.860413 0.200232,-0.364058 0.30024,-0.805166 0.30024,-1.32395 0,-0.8646393 -0.30054,-1.5154652 -0.901237,-1.9523356 C 72.425136,7.2362466 71.592666,7.0130086 70.518693,7.0130086 Z m 9.54257,0 c -0.07281,0 -0.127408,0.018371 -0.163814,0.054777 -0.0273,0.027304 -0.04082,0.072716 -0.04082,0.1364258 v 9.7203366 c 0,0.145624 0.06378,0.218592 0.191202,0.218592 h 2.006596 c 1.228698,0 2.248181,-0.191347 3.058211,-0.573609 0.810031,-0.382261 1.410595,-0.955268 1.801958,-1.719791 0.391363,-0.764524 0.587044,-1.71589 0.587044,-2.853573 0,-1.073973 -0.181645,-1.975077 -0.545703,-2.7031942 C 82.791906,8.5648555 82.222716,8.009703 81.43999,7.6274414 80.666366,7.2451798 79.6474,7.0451642 78.382296,7.0269613 h -0.491443 -0.573609 c -0.19113,-0.0091 -0.377626,-0.013953 -0.559655,-0.013953 z m 9.815939,0 c -0.109218,0 -0.163815,0.063782 -0.163815,0.1912028 v 9.7477256 c 0,0.12742 0.06378,0.191203 0.191203,0.191203 h 6.266284 c 0.05461,0 0.09135,-0.01352 0.109554,-0.04082 0.0273,-0.0273 0.04082,-0.06405 0.04082,-0.109554 v -0.72347 c 0,-0.09101 -0.05026,-0.136426 -0.150379,-0.136426 h -5.01003 c -0.09102,0 -0.136942,-0.04541 -0.136942,-0.136425 v -3.317627 c 0,-0.100116 0.05026,-0.150379 0.150378,-0.150379 h 3.535701 c 0.06371,0 0.104787,-0.0087 0.12299,-0.02687 0.0182,-0.0273 0.02739,-0.05919 0.02739,-0.0956 v -0.72347 c 0,-0.100116 -0.05026,-0.150378 -0.150379,-0.150378 H 87.36521 c -0.100116,0 -0.150378,-0.05026 -0.150378,-0.150379 V 8.1870972 c 0,-0.1092176 0.05945,-0.1638143 0.177766,-0.1638143 h 4.764568 c 0.118319,0 0.17725,-0.054597 0.17725,-0.1638143 V 7.163387 c 0,-0.1001161 -0.04541,-0.1503784 -0.136426,-0.1503784 z m 8.573636,0 c -0.109217,0 -0.163814,0.063782 -0.163814,0.1912028 v 9.7616776 c 0,0.05461 0.01352,0.10002 0.04082,0.136426 0.0273,0.0273 0.07757,0.04082 0.150379,0.04082 h 0.887284 c 0.154725,0 0.232027,-0.07297 0.232027,-0.218592 v -4.245735 c 0,-0.04551 0.0092,-0.08173 0.02739,-0.109038 0.0273,-0.0273 0.07272,-0.04134 0.136426,-0.04134 h 2.307352 c 0.172928,0 0.282122,0.05026 0.327629,0.150379 l 1.761139,4.300512 c 0.0455,0.109218 0.11847,0.163815 0.21859,0.163815 h 0.99632 c 0.0637,0 0.10964,-0.02756 0.13694,-0.08217 0.0364,-0.05461 0.0407,-0.11354 0.0134,-0.17725 l -1.911516,-4.464327 c -0.03641,-0.08191 -0.01803,-0.127324 0.05478,-0.136426 0.318556,-0.100116 0.628276,-0.25472 0.928626,-0.464054 0.30945,-0.218435 0.56406,-0.505456 0.76429,-0.860413 0.20024,-0.364058 0.30024,-0.805166 0.30024,-1.32395 0,-0.8646393 -0.30002,-1.5154652 -0.90072,-1.9523356 C 100.3578,7.2362466 99.524811,7.0130086 98.450838,7.0130086 Z M 60.020109,7.8734212 c 0.973857,0 1.70632,0.3459513 2.197799,1.0376628 0.50058,0.6917114 0.750858,1.76094 0.750858,3.208073 0,1.419829 -0.245943,2.471203 -0.737422,3.153813 -0.482378,0.673508 -1.214841,1.010274 -2.197799,1.010274 -0.99206,0 -1.738559,-0.341617 -2.23914,-1.024227 -0.500581,-0.68261 -0.750858,-1.729133 -0.750858,-3.13986 0,-1.438032 0.250277,-2.5029257 0.750858,-3.1946371 0.500581,-0.700813 1.242746,-1.0510987 2.225704,-1.0510987 z m 8.027417,0.095601 h 2.402437 c 0.68261,0 1.201537,0.1454189 1.556495,0.4366659 0.364058,0.2912469 0.546219,0.7415404 0.546219,1.3513387 0,0.6280012 -0.204866,1.0879972 -0.614432,1.3792442 -0.400465,0.291247 -1.001029,0.436666 -1.801958,0.436666 h -2.156974 c -0.08191,0 -0.12299,-0.05893 -0.12299,-0.17725 V 8.1188843 c 0,-0.1001162 0.06378,-0.1498617 0.191203,-0.1498621 z m 27.932145,0 h 2.402954 c 0.68261,0 1.201537,0.1454189 1.556494,0.4366659 0.364061,0.2912469 0.545701,0.7415404 0.545701,1.3513387 0,0.6280012 -0.20486,1.0879972 -0.61443,1.3792442 -0.400465,0.291247 -1.001028,0.436666 -1.801957,0.436666 h -2.156975 c -0.08191,0 -0.12299,-0.05893 -0.12299,-0.17725 V 8.1188843 c 0,-0.1001162 0.06378,-0.1498617 0.191203,-0.1498621 z M 77.494495,8.009847 h 0.614432 c 0.955654,0 1.74323,0.1227134 2.36213,0.368453 0.628001,0.2457396 1.091815,0.6646587 1.392163,1.256254 0.30945,0.582494 0.464571,1.392259 0.464571,2.429826 0,0.99206 -0.15027,1.788305 -0.450618,2.389001 -0.291247,0.600697 -0.750726,1.037987 -1.378727,1.311031 -0.628002,0.263943 -1.447469,0.395842 -2.457731,0.395842 h -0.518832 c -0.109217,0 -0.163814,-0.05026 -0.163814,-0.150379 V 8.2010498 c 0,-0.1274205 0.04541,-0.1912028 0.136426,-0.1912028 z" />
      </g>
    </g>
  </g>
</svg>
